Patient4_TMGait_0pt4_01_right_26_GRF.mot
version=1
nRows=58
nColumns=19
inDegrees=no
endheader
time	F1x	F1y	F1z	M1x	M1y	M1z	F2x	F2y	F2z	M2x	M2y	M2z	EC1x	EC1y	EC1z	EC2x	EC2y	EC2z
33.46	10.441	736.3986	64.6135	-249.1473	-64.5528	803.1539	6.2689	4.8736	-1.8238	1.2969	-0.060962	9.5729	-0.0592	0.0182	-0.0073	-0.0462	0.0165	0.9585
33.4735	11.0154	733.6252	62.0128	-248.8597	-61.1099	795.793	3.9536	3.5637	-1.2603	0.99367	0.080271	6.8805	-0.0592	0.0182	-0.0073	-0.0462	0.0165	0.9585
33.487	11.8904	731.7113	59.582	-248.7302	-57.6808	789.2222	2.0848	2.4904	-0.77015	0.74584	0.17307	4.6134	-0.0592	0.0182	-0.0073	-0.0462	0.0165	0.9585
33.5005	12.9602	731.243	57.575	-248.8932	-54.5975	784.3215	0.74058	1.6982	-0.38755	0.56578	0.22075	2.8965	-0.0592	0.0182	-0.0073	-0.0462	0.0165	0.9585
33.514	14.1008	732.5087	56.2007	-249.4205	-52.1427	781.5452	-0.14857	1.1858	-0.12329	0.4533	0.24493	1.7539	-0.0592	0.0182	-0.0073	-0.0462	0.0165	0.9585
33.5275	15.2514	735.4808	55.4823	-250.3156	-50.3867	780.897	-0.66794	0.88787	0.038741	0.39372	0.25366	1.0704	-0.0592	0.0182	-0.0073	-0.0462	0.0165	0.9585
33.541	16.4149	739.866	55.3869	-251.5174	-49.3061	782.0266	-0.93066	0.73645	0.10524	0.36904	0.27764	0.71356	-0.0592	0.0182	-0.0073	-0.0462	0.0165	0.9585
33.5545	17.6837	745.2023	55.7543	-252.9274	-48.7189	784.3344	-1.0402	0.65711	0.10117	0.35674	0.32595	0.54494	-0.0592	0.0182	-0.0073	-0.0462	0.0165	0.9585
33.568	19.1976	750.9566	56.4345	-254.4277	-48.4244	787.1333	-1.0666	0.54168	0.040401	0.3231	0.40699	0.39094	-0.0592	0.0182	-0.0073	-0.0462	0.0165	0.9585
33.5815	21.1197	756.609	57.247	-255.9008	-48.1847	789.7575	-1.0849	0.30408	-0.050116	0.23636	0.51593	0.12738	-0.0592	0.0182	-0.0073	-0.0462	0.0165	0.9585
33.595	23.5502	761.7244	58.0742	-257.2434	-47.8401	791.6705	-1.0996	-0.15767	-0.15683	0.0586	0.64275	-0.40126	-0.0592	0.0182	-0.0073	-0.0462	0.0165	0.9585
33.6085	26.5094	766.0015	58.8148	-258.3777	-47.2731	792.5269	-1.1254	-0.92461	-0.25624	-0.24205	0.76717	-1.3055	-0.0592	0.0182	-0.0073	-0.0462	0.0165	0.9585
33.622	29.9533	769.2519	59.4377	-259.2421	-46.4576	792.1494	-1.1402	-2.0601	-0.33294	-0.68852	0.86222	-2.6675	-0.0592	0.0182	-0.0073	-0.0462	0.0165	0.9585
33.6355	33.7531	771.4104	59.9314	-259.7955	-45.4133	790.5523	-1.0826	-3.5617	-0.36475	-1.2795	0.87688	-4.4894	-0.0592	0.0182	-0.0073	-0.0462	0.0165	0.9585
33.649	37.7598	772.5176	60.3376	-260.0124	-44.2243	787.8877	-0.88775	-5.3273	-0.32542	-1.9751	0.74861	-6.644	-0.0592	0.0182	-0.0073	-0.0462	0.0165	0.9585
33.6625	41.7853	772.6167	60.7344	-259.8541	-43.024	784.3429	-0.44501	-7.1308	-0.18072	-2.6816	0.394	-8.8616	-0.0592	0.0182	-0.0073	-0.0462	0.0165	0.9585
33.676	45.6318	771.6954	61.2375	-259.2576	-41.9881	780.0612	0.35818	-8.5002	0.10828	-3.2146	-0.27506	-10.5634	-0.0592	0.0182	-0.0073	-0.0462	0.0165	0.9585
33.6895	49.107	769.7134	61.94	-258.157	-41.2707	775.1302	1.6491	-8.6871	0.58384	-3.2829	-1.3537	-10.8363	-0.0592	0.0182	-0.0073	-0.0462	0.0165	0.9585
33.703	52.0354	766.6056	62.8943	-256.494	-40.9856	769.5922	3.5104	-6.6214	1.2855	-2.471	-2.9163	-8.3627	-0.0592	0.0182	-0.0073	-0.0462	0.0165	0.9585
33.7165	54.2821	762.1903	64.0784	-254.195	-41.1683	763.3287	5.9419	-0.88979	2.2344	-0.23328	-4.9803	-1.3997	-0.0592	0.0182	-0.0073	-0.0462	0.0165	0.9585
33.73	55.7292	756.0978	65.3974	-251.145	-41.781	756.0164	8.8199	10.1608	3.411	4.067	-7.4611	12.0851	-0.0592	0.0182	-0.0073	-0.0462	0.0165	0.9585
33.7435	56.3233	747.6943	66.6783	-247.16	-42.6902	747.0305	11.7528	28.2069	4.7207	11.0714	-10.0809	34.169	-0.0592	0.0182	-0.0073	-0.0462	0.0165	0.9585
33.757	56.0447	736.033	67.6803	-241.9709	-43.6848	735.4062	14.0275	54.5211	5.9496	21.2626	-12.288	66.4361	-0.0592	0.0182	-0.0073	-0.0462	0.0165	0.9585
33.7705	54.879	719.9223	68.1035	-235.2436	-44.4938	719.914	14.5536	89.4041	6.7257	34.7376	-13.2022	109.289	-0.0592	0.0182	-0.0073	-0.0462	0.0165	0.9585
33.784	52.8624	698.1733	67.6346	-226.66	-44.8135	699.2816	12.0977	131.4891	6.5671	50.9446	-11.763	161.0784	-0.0592	0.0182	-0.0073	-0.0462	0.0165	0.9585
33.7975	50.0788	670.0182	66.0095	-216.0496	-44.369	672.6307	6.2589	177.5637	4.861	68.6088	-7.107	217.8703	-0.0592	0.0182	-0.0073	-0.0462	0.0165	0.9585
33.811	46.7059	635.471	63.0916	-203.5089	-42.9665	639.815	-1.6418	223.8681	1.2913	86.2468	0.57445	274.9602	-0.0592	0.0182	-0.0073	-0.0462	0.0165	0.9585
33.8245	43.0248	595.4317	58.9612	-189.4175	-40.5727	601.532	-10.0164	267.7562	-3.7335	102.8447	10.1417	328.8713	-0.0592	0.0182	-0.0073	-0.0462	0.0165	0.9585
33.838	39.3647	551.3143	53.853	-174.3039	-37.2718	558.9784	-17.7635	308.67	-9.7662	118.1999	20.5989	378.7352	-0.0592	0.0182	-0.0073	-0.0462	0.0165	0.9585
33.8515	35.9697	504.4406	48.0683	-158.6354	-33.2368	513.2919	-24.2897	347.3568	-16.1079	132.6364	30.8849	425.3678	-0.0592	0.0182	-0.0073	-0.0462	0.0165	0.9585
33.865	32.8344	455.615	41.8514	-142.6722	-28.6719	465.198	-29.423	384.8653	-22.2289	146.5987	40.28	470.0326	-0.0592	0.0182	-0.0073	-0.0462	0.0165	0.9585
33.8785	29.7774	405.2834	35.4298	-126.5198	-23.8312	415.1456	-33.1068	422.1625	-27.6732	160.4981	48.2382	513.8748	-0.0592	0.0182	-0.0073	-0.0462	0.0165	0.9585
33.892	26.5361	353.8727	29.0248	-110.2522	-18.9971	363.6235	-35.344	460.1221	-32.3704	174.6769	54.6753	557.9506	-0.0592	0.0182	-0.0073	-0.0462	0.0165	0.9585
33.9055	22.8689	302.0311	22.9223	-94.0013	-14.5123	311.3537	-36.1779	499.4057	-36.4605	189.3682	59.7952	603.0866	-0.0592	0.0182	-0.0073	-0.0462	0.0165	0.9585
33.919	18.6562	250.776	17.3997	-78.0169	-10.684	259.411	-35.8153	540.1162	-40.3242	204.5697	64.1286	649.4956	-0.0592	0.0182	-0.0073	-0.0462	0.0165	0.9585
33.9325	13.9173	201.5267	12.676	-62.6883	-7.7311	209.2809	-34.6428	581.6513	-44.3218	220.0047	68.2538	696.5771	-0.0592	0.0182	-0.0073	-0.0462	0.0165	0.9585
33.946	8.8828	155.9509	8.8396	-48.506	-5.6899	162.6951	-33.1301	622.9478	-48.7095	235.2294	72.6486	743.1957	-0.0592	0.0182	-0.0073	-0.0462	0.0165	0.9585
33.9595	3.9836	115.6225	5.8758	-35.9517	-4.4279	121.2924	-31.7131	662.8137	-53.4727	249.7695	77.464	788.0609	-0.0592	0.0182	-0.0073	-0.0462	0.0165	0.9585
33.973	-0.25486	81.5741	3.6907	-25.3519	-3.7002	86.1574	-30.6543	699.9614	-58.3681	263.1377	82.5206	829.7401	-0.0592	0.0182	-0.0073	-0.0462	0.0165	0.9585
33.9865	-3.3986	54.1071	2.148	-16.8061	-3.2396	57.6408	-30.0632	733.0276	-63.0666	274.8272	87.4768	866.703	-0.0592	0.0182	-0.0073	-0.0462	0.0165	0.9585
34	-5.2042	32.9398	1.105	-10.2285	-2.8272	35.5105	-29.9015	760.6464	-67.2492	284.3428	91.9539	897.3965	-0.0592	0.0182	-0.0073	-0.0462	0.0165	0.9585
34.0135	-5.6574	17.4766	0.4226	-5.4324	-2.3253	19.2143	-30.0775	781.6161	-70.6964	291.2577	95.6648	920.4529	-0.0592	0.0182	-0.0073	-0.0462	0.0165	0.9585
34.027	-5.0802	6.9808	0.01094	-2.1845	-1.7491	8.0551	-30.4612	795.1043	-73.2597	295.2917	98.3975	934.9235	-0.0592	0.0182	-0.0073	-0.0462	0.0165	0.9585
34.0405	-4.0057	0.60276	-0.20226	-0.21535	-1.2007	1.1998	-30.8937	800.8888	-74.8883	296.3994	100.0435	940.5475	-0.0592	0.0182	-0.0073	-0.0462	0.0165	0.9585
34.054	-2.8158	-2.6593	-0.26742	0.7901	-0.75357	-2.3699	-31.2612	799.543	-75.5628	294.8389	100.555	937.971	-0.0592	0.0182	-0.0073	-0.0462	0.0165	0.9585
34.0675	-1.7336	-3.7759	-0.24445	1.1332	-0.4215	-3.653	-31.4815	792.4322	-75.3411	291.1619	99.9875	928.7412	-0.0592	0.0182	-0.0073	-0.0462	0.0165	0.9585
34.081	-0.86122	-3.5769	-0.17104	1.0702	-0.20113	-3.5208	-31.5308	781.4764	-74.3426	286.1169	98.4877	915.0447	-0.0592	0.0182	-0.0073	-0.0462	0.0165	0.9585
34.0945	-0.22563	-2.693	-0.080479	0.79445	-0.071198	-2.6406	-31.4356	768.7715	-72.7666	280.5074	96.3005	899.2672	-0.0592	0.0182	-0.0073	-0.0462	0.0165	0.9585
34.108	0.18867	-1.5541	0.0068733	0.43625	-0.010346	-1.4649	-31.246	756.3114	-70.8428	275.0891	93.7125	883.662	-0.0592	0.0182	-0.0073	-0.0462	0.0165	0.9585
34.1215	0.4277	-0.43526	0.08532	0.077433	-0.0016331	-0.28973	-31.0162	745.7793	-68.8235	270.4918	91.0317	870.1177	-0.0592	0.0182	-0.0073	-0.0462	0.0165	0.9585
34.135	0.53201	0.52053	0.14466	-0.23861	-0.023319	0.73051	-30.7697	738.366	-66.9239	267.1571	88.5118	859.9366	-0.0592	0.0182	-0.0073	-0.0462	0.0165	0.9585
34.1485	0.54685	1.2483	0.19111	-0.48966	-0.066911	1.5229	-30.5108	734.6898	-65.2872	265.3114	86.3143	853.7666	-0.0592	0.0182	-0.0073	-0.0462	0.0165	0.9585
34.162	0.50494	1.7312	0.22145	-0.66665	-0.11731	2.0682	-30.2001	734.8366	-63.9857	264.9815	84.498	851.6461	-0.0592	0.0182	-0.0073	-0.0462	0.0165	0.9585
34.1755	0.41785	1.9743	0.24292	-0.76362	-0.1753	2.3635	-29.7659	738.4352	-63.0336	266.0241	83.0445	853.1011	-0.0592	0.0182	-0.0073	-0.0462	0.0165	0.9585
34.189	0.30072	1.9782	0.25663	-0.77359	-0.23679	2.3869	-29.1445	744.7436	-62.3993	268.1599	81.8844	857.2637	-0.0592	0.0182	-0.0073	-0.0462	0.0165	0.9585
34.2025	0.14941	1.7325	0.27266	-0.68747	-0.31048	2.1124	-28.2613	752.7408	-62.0148	271.0088	80.905	862.9672	-0.0592	0.0182	-0.0073	-0.0462	0.0165	0.9585
34.216	-0.021941	1.2046	0.29442	-0.49019	-0.39646	1.4816	-27.056	761.2325	-61.7932	274.1235	79.9782	868.881	-0.0592	0.0182	-0.0073	-0.0462	0.0165	0.9585
34.2295	-0.20007	0.35691	0.32302	-0.16645	-0.49206	0.43501	-25.4857	768.9187	-61.6336	277.0159	78.9691	873.5856	-0.0592	0.0182	-0.0073	-0.0462	0.0165	0.9585
